<svg xmlns="http://www.w3.org/2000/svg" width="852" height="852" viewBox="0 0 852 852" version="1.1">
	<path d="M 59.695 16.096 C 57.513 17.248, 54.633 20.085, 52.945 22.748 L 50 27.392 50.016 425.446 L 50.033 823.500 52.272 827.453 C 53.504 829.628, 56.456 832.890, 58.833 834.703 L 63.155 838 425.924 838 C 760.150 838, 788.961 837.871, 792.096 836.359 C 797.171 833.913, 801.003 830.021, 803.115 825.167 C 804.951 820.946, 805 810.609, 805 425.571 C 805 59.514, 804.877 30.056, 803.342 26.904 C 800.317 20.694, 797.742 17.787, 793.599 15.905 C 789.625 14.101, 778.389 14.045, 426.500 14.066 C 64.972 14.088, 63.485 14.097, 59.695 16.096 M 316.250 47.750 L 85 48.004 85 425.502 L 85 803 428 803 L 771 803 771 425 L 771 47 659.250 47.248 C 597.788 47.384, 443.438 47.610, 316.250 47.750 M 178.811 82.389 C 177.202 84.605, 177.231 84.876, 179.434 88.117 C 181.932 91.794, 195.269 102.222, 209.195 111.388 C 230.839 125.634, 270.175 141.596, 294.254 145.904 C 303.766 147.606, 306.692 150.443, 301.750 153.173 C 298.272 155.094, 264.313 154.713, 249.500 152.586 C 225.242 149.103, 200.878 141.340, 174.908 128.819 C 164.978 124.031, 157.391 120.956, 156.010 121.160 C 148.903 122.208, 152.471 131.371, 163.138 139.464 C 191.052 160.641, 219.152 177.086, 243.747 186.639 C 265.572 195.116, 277.203 198.178, 300 201.449 C 313.532 203.391, 321.318 204.958, 323.167 206.111 C 325.869 207.798, 322.598 210.460, 316.897 211.214 C 293.941 214.251, 292.497 214.311, 271.056 213.107 C 236.519 211.166, 202.583 204.450, 172.098 193.521 C 157.025 188.118, 153.785 187.378, 150.582 188.607 C 148.504 189.404, 148.602 192.970, 150.772 195.569 C 154.918 200.532, 175.385 213.628, 188.067 219.431 C 193.295 221.824, 205.473 226.449, 214.500 229.471 C 230.610 234.863, 262.177 240.963, 284.500 242.996 C 290.550 243.547, 304.635 243.999, 315.800 243.999 C 337.574 244, 340.540 244.569, 343.220 249.260 C 344.243 251.050, 344.600 290.834, 345 447.469 L 345.500 643.438 350.500 645.297 C 353.250 646.320, 360.593 648.472, 366.819 650.079 C 407.557 660.594, 448.515 659.321, 484.670 646.415 L 491.840 643.855 492.189 448.678 C 492.509 270.061, 492.679 253.188, 494.186 249.828 C 497.640 242.128, 493.619 242.566, 566.454 241.951 L 631.500 241.401 640.500 238.638 C 665.129 231.077, 679.253 220.997, 695.342 199.500 C 713.903 174.700, 728.917 128.701, 728.982 96.437 C 728.999 87.809, 728.868 87.255, 726.250 84.889 C 724.737 83.523, 722.333 81.825, 720.907 81.118 C 718.806 80.074, 675.067 79.944, 489.907 80.431 C 364.283 80.761, 244.679 81.280, 224.120 81.585 C 198.209 81.969, 186.411 81.811, 185.670 81.070 C 183.891 79.291, 180.601 79.923, 178.811 82.389 M 662.397 650.907 C 653.578 654.913, 650 662.337, 650 676.634 L 650 684.905 643.750 685.202 L 637.500 685.500 637.500 690.500 L 637.500 695.500 643.736 695.797 L 649.973 696.095 650.236 728.797 L 650.500 761.500 656.500 761.500 L 662.500 761.500 662.764 728.787 L 663.027 696.075 672.264 695.787 L 681.500 695.500 681.500 690.500 L 681.500 685.500 672.250 685.212 L 663 684.925 663 679.512 C 663 671.844, 664.779 664.510, 667.161 662.354 C 669.363 660.362, 675.454 660, 682.250 661.457 L 686 662.262 685.985 657.881 C 685.976 655.471, 685.607 652.929, 685.164 652.232 C 682.952 648.746, 668.949 647.932, 662.397 650.907 M 189.655 656.829 C 187.482 659.230, 187.428 667.286, 189.571 669.429 C 191.850 671.707, 200.202 671.539, 202.345 669.171 C 204.674 666.597, 204.566 658.823, 202.171 656.655 C 199.597 654.326, 191.823 654.434, 189.655 656.829 M 231.200 666.200 C 230.450 666.950, 230 670.678, 230 676.150 L 230 684.900 224.250 685.200 L 218.500 685.500 218.500 690.500 L 218.500 695.500 224.153 695.797 L 229.807 696.094 230.196 722.297 C 230.527 744.521, 230.852 749.105, 232.341 752.486 C 236.129 761.093, 242.745 764.615, 253.502 763.752 C 262.167 763.056, 265 761.155, 265 756.036 C 265 753.881, 264.533 751.829, 263.962 751.476 C 263.391 751.123, 260.771 751.386, 258.141 752.060 C 251.788 753.689, 248.039 752.442, 245.752 747.940 C 244.230 744.946, 244.003 741.358, 244.002 720.285 L 244 696.070 254.250 695.785 L 264.500 695.500 264.500 690.500 L 264.500 685.500 254.250 685.215 L 244 684.930 244 675.572 C 244 667.961, 243.705 666.101, 242.418 665.607 C 239.695 664.562, 232.455 664.945, 231.200 666.200 M 385.698 684.383 C 381.210 686.056, 375.220 690.068, 371.883 693.636 L 369.500 696.184 369 690.842 L 368.500 685.500 363 685.500 L 357.500 685.500 357.241 737.387 C 357.054 774.872, 357.296 789.652, 358.113 790.637 C 359.523 792.335, 368.145 792.455, 369.800 790.800 C 370.644 789.956, 371 784.283, 371 771.672 L 371 753.744 374.250 756.416 C 376.038 757.886, 379.914 760.250, 382.865 761.670 C 387.476 763.889, 389.178 764.184, 394.965 763.770 C 413.391 762.452, 423.926 747.626, 423.983 722.934 C 424.026 704.176, 418.343 691.293, 407.595 685.783 C 402.371 683.105, 391.067 682.382, 385.698 684.383 M 462.332 684.851 C 449.448 689.304, 442.316 699.392, 439.931 716.539 C 437.857 731.450, 442.516 749.029, 450.282 755.598 C 456.178 760.585, 463.482 763.222, 472.882 763.758 C 482.137 764.285, 494.529 762.329, 500.064 759.467 C 502.882 758.010, 503.083 757.549, 502.803 753.197 C 502.446 747.665, 502.622 747.695, 490.031 751.018 C 480.625 753.500, 470.490 753.351, 465.325 750.654 C 458.523 747.102, 454 739.002, 454 730.374 L 454 726 478.878 726 C 499.770 726, 503.955 725.760, 505 724.500 C 507.058 722.020, 505.808 706.559, 503.037 700.221 C 500.025 693.331, 492.531 686.532, 485.721 684.510 C 478.954 682.500, 468.702 682.650, 462.332 684.851 M 581.066 684.592 C 578.077 685.396, 573.802 687.060, 571.566 688.290 C 567.798 690.363, 567.478 690.875, 567.195 695.274 C 566.787 701.614, 568.335 702.063, 576.937 698.098 C 586.220 693.820, 594.930 692.991, 601.246 695.785 C 606.854 698.265, 608.681 701.431, 609.583 710.231 L 610.248 716.720 597.874 717.236 C 588.352 717.633, 584.117 718.276, 579.500 720.024 C 567.021 724.750, 561.159 734.997, 563.999 747.122 C 565.726 754.497, 572.447 761.188, 579.932 762.984 C 590.207 765.449, 600.345 762.800, 607.750 755.717 L 611 752.608 611 756.181 C 611 760.777, 612.810 762.197, 618.176 761.811 L 622.500 761.500 622.500 730.500 C 622.500 700.447, 622.433 699.374, 620.294 695.376 C 617.347 689.867, 612.991 686.372, 606.771 684.525 C 600.387 682.629, 588.251 682.661, 581.066 684.592 M 190.250 685.662 C 188.478 686.377, 188.430 759.030, 190.200 760.800 C 191.756 762.356, 200.244 762.356, 201.800 760.800 C 203.521 759.079, 203.521 687.921, 201.800 686.200 C 200.627 685.027, 192.734 684.660, 190.250 685.662 M 273.667 685.667 C 273.300 686.033, 273 687.088, 273 688.010 C 273 689.877, 298.386 758.045, 300.109 760.802 C 300.971 762.183, 300.133 765.307, 296.099 775.743 C 293.295 783, 291 789.353, 291 789.862 C 291 792.184, 301.494 792.890, 304.195 790.750 C 305.063 790.063, 307.425 784.775, 309.445 779 C 311.465 773.225, 319.667 750.396, 327.673 728.270 C 335.679 706.143, 341.967 687.356, 341.646 686.520 C 341.222 685.415, 339.560 685, 335.554 685 C 330.918 685, 329.828 685.356, 328.666 687.250 C 327.907 688.487, 323.064 701.987, 317.903 717.250 C 312.742 732.513, 308.290 744.996, 308.010 744.991 C 307.729 744.986, 302.822 731.734, 297.105 715.542 C 291.173 698.743, 286.092 685.866, 285.273 685.551 C 283.252 684.776, 274.470 684.863, 273.667 685.667 M 467.914 693.956 C 460.894 696.083, 455.512 702.987, 454.368 711.331 L 453.728 716 473.364 716 C 495.358 716, 493.770 716.691, 491.892 707.933 C 489.507 696.810, 478.899 690.627, 467.914 693.956 M 385 696.027 C 382.525 697.178, 378.363 700.394, 375.750 703.174 L 371 708.227 371 723.815 L 371 739.402 376.887 745.127 C 386.024 754.012, 394.211 755.265, 401.472 748.890 C 412.858 738.893, 412.437 705.144, 400.823 696.874 C 396.510 693.803, 390.476 693.480, 385 696.027 M 589.500 727.935 C 580.649 730.090, 576.280 735.595, 577.312 743.292 C 577.919 747.815, 580.238 750.742, 584.718 752.638 C 591.265 755.409, 597.917 753.679, 604.919 747.383 L 610 742.815 610 734.907 L 610 727 601.250 727.102 C 596.438 727.159, 591.150 727.533, 589.500 727.935 M 528.441 744.419 C 526.856 745.579, 526.500 747.060, 526.500 752.500 C 526.500 760.339, 527.913 762, 534.580 762 C 541.126 762, 543.286 759.644, 543.286 752.500 C 543.286 747.637, 542.905 746.342, 541.032 744.825 C 538.306 742.618, 531.217 742.389, 528.441 744.419" stroke="none" fill="black" fill-rule="evenodd"/>
</svg>